Coordinates
version=1
nRows=24
nColumns=34
inDegrees=no

Units are S.I. units (second, meters, Newtons, ...)
If the header above contains a line with 'inDegrees', this indicates whether rotational values are in degrees (yes) or radians (no).

endheader
time	pelvis_tilt	pelvis_list	pelvis_rotation	pelvis_tx	pelvis_ty	pelvis_tz	hip_flexion_r	hip_adduction_r	hip_rotation_r	knee_angle_r	ankle_angle_r	subtalar_angle_r	mtp_angle_r	hip_flexion_l	hip_adduction_l	hip_rotation_l	knee_angle_l	ankle_angle_l	subtalar_angle_l	mtp_angle_l	lumbar_extension	lumbar_bending	lumbar_rotation	arm_flex_r	arm_add_r	arm_rot_r	elbow_flex_r	pro_sup_r	arm_flex_l	arm_add_l	arm_rot_l	elbow_flex_l	pro_sup_l
0	0.269668	-0.0771755	0.0603553	-0.182852	1.01863	-0.202933	0.142774	0.109179	-0.232559	-0.0207224	0.011169	0.250988	-0.0166577	-0.521711	-0.135697	-0.355028	0.295095	0.503387	0.468478	-0.0237427	-0.517875	0.081242	-0.161667	-0.259485	-0.151554	-0.214373	0.472058	2.00508	0.321911	-0.432112	-0.233969	0.814151	1.80898
0.01	0.273048	-0.0853137	0.0719835	-0.164808	1.0248	-0.20302	0.12565	0.120869	-0.225799	-0.0253002	-0.0287141	0.220044	-0.0167176	-0.530033	-0.152417	-0.341914	0.31672	0.488983	0.448315	-0.023673	-0.516288	0.0932811	-0.16646	-0.266339	-0.150665	-0.209278	0.46349	2.00311	0.31509	-0.430433	-0.239001	0.828282	1.81239
0.02	0.275601	-0.0936859	0.082303	-0.146997	1.03028	-0.202982	0.110323	0.132324	-0.22096	-0.0272966	-0.0636387	0.192691	-0.0167775	-0.533426	-0.169496	-0.329184	0.344028	0.466489	0.422704	-0.0236034	-0.513991	0.104574	-0.169205	-0.272645	-0.149668	-0.204659	0.456555	2.0028	0.307314	-0.427611	-0.243529	0.842188	1.81442
0.03	0.277322	-0.102319	0.0913085	-0.129433	1.03511	-0.20281	0.096816	0.143539	-0.218074	-0.0266836	-0.093509	0.16901	-0.0168374	-0.53186	-0.186933	-0.316866	0.377015	0.435886	0.391684	-0.0235337	-0.510987	0.115113	-0.169884	-0.278398	-0.148566	-0.200534	0.451262	2.00415	0.298603	-0.423644	-0.247538	0.855855	1.81508
0.04	0.278192	-0.111254	0.0989896	-0.112137	1.03936	-0.202493	0.0851664	0.154515	-0.217188	-0.0233968	-0.118093	0.149164	-0.0168973	-0.525268	-0.20474	-0.305019	0.415629	0.397177	0.355371	-0.0234639	-0.507301	0.124901	-0.168461	-0.283573	-0.147378	-0.196934	0.44763	2.00717	0.289018	-0.418534	-0.25099	0.869242	1.81436
0.05	0.27819	-0.12053	0.105342	-0.0951364	1.04307	-0.202026	0.0753964	0.165269	-0.218312	-0.0173769	-0.137058	0.13334	-0.0169572	-0.513589	-0.22293	-0.293713	0.459705	0.350505	0.314039	-0.0233942	-0.502994	0.133963	-0.164902	-0.288119	-0.146142	-0.193893	0.445678	2.01181	0.278677	-0.412297	-0.253833	0.882281	1.81231
0.06	0.277323	-0.130164	0.110387	-0.0784643	1.0463	-0.201408	0.0674633	0.175829	-0.22134	-0.00865889	-0.150075	0.121662	-0.0170172	-0.496842	-0.241493	-0.282981	0.50888	0.296346	0.268209	-0.0233245	-0.498172	0.142332	-0.159208	-0.291954	-0.144919	-0.191416	0.445406	2.01794	0.267749	-0.404975	-0.256009	0.894868	1.80903
0.07	0.275645	-0.140127	0.114198	-0.0621507	1.04911	-0.20065	0.0612029	0.186221	-0.225989	0.00252028	-0.156983	0.11406	-0.0170771	-0.475184	-0.26035	-0.272758	0.562548	0.235718	0.218704	-0.0232547	-0.492993	0.15003	-0.151463	-0.294963	-0.143786	-0.189442	0.446774	2.0253	0.256438	-0.396643	-0.257473	0.906882	1.8047
0.08	0.273268	-0.150325	0.116918	-0.0462213	1.05156	-0.199772	0.0562928	0.196452	-0.231771	0.0156489	-0.157939	0.110177	-0.017137	-0.448936	-0.279321	-0.262832	0.619852	0.170349	0.166676	-0.023185	-0.487663	0.157051	-0.141874	-0.296997	-0.142832	-0.187816	0.449685	2.03349	0.24495	-0.387421	-0.258216	0.918195	1.79961
0.09	0.270362	-0.160575	0.118765	-0.0306915	1.0537	-0.198804	0.0522507	0.206488	-0.238044	0.0299484	-0.153485	0.109371	-0.017197	-0.418584	-0.298095	-0.252841	0.679718	0.102758	0.113633	-0.0231152	-0.48242	0.163331	-0.130786	-0.297885	-0.142138	-0.186291	0.453978	2.04198	0.233468	-0.377471	-0.258271	0.928676	1.79407
0.1	0.26715	-0.170597	0.120014	-0.0155651	1.05561	-0.197781	0.0484672	0.216239	-0.244103	0.0444473	-0.144534	0.11079	-0.0172569	-0.384755	-0.316229	-0.242316	0.740922	0.0361643	0.0614191	-0.0230454	-0.477521	0.168734	-0.118663	-0.297444	-0.141767	-0.184554	0.459434	2.05018	0.222133	-0.366988	-0.257712	0.938201	1.78847
0.11	0.263883	-0.180034	0.12097	-0.000832414	1.05734	-0.196741	0.0442667	0.225545	-0.249289	0.0581008	-0.132265	0.113489	-0.0173168	-0.348173	-0.333165	-0.230761	0.802167	-0.0257621	0.0121171	-0.0229755	-0.47322	0.173051	-0.10605	-0.295496	-0.141746	-0.182267	0.4658	2.05752	0.211033	-0.356186	-0.256647	0.946642	1.78314
0.12	0.260813	-0.18848	0.121934	0.0135275	1.05896	-0.195717	0.0389868	0.23419	-0.253069	0.0699263	-0.117981	0.116535	-0.0173768	-0.309605	-0.348283	-0.217747	0.862168	-0.0793287	-0.0321295	-0.0229057	-0.46975	0.176011	-0.0935105	-0.291888	-0.142064	-0.179128	0.472806	2.06349	0.200211	-0.345283	-0.255205	0.953865	1.7784
0.13	0.258161	-0.195536	0.123156	0.0275412	1.06051	-0.194734	0.0320633	0.241914	-0.255072	0.0791297	-0.10295	0.119106	-0.0174367	-0.269803	-0.360963	-0.203014	0.919719	-0.121322	-0.0693575	-0.0228359	-0.467293	0.177309	-0.0815598	-0.286508	-0.142668	-0.174912	0.480197	2.06773	0.189671	-0.334475	-0.253529	0.95972	1.7745
0.14	0.256095	-0.200855	0.124803	0.0412408	1.06205	-0.193809	0.0231039	0.248458	-0.2551	0.0851999	-0.0882577	0.120551	-0.0174967	-0.229458	-0.370671	-0.186543	0.973743	-0.149486	-0.0980416	-0.022766	-0.465965	0.176648	-0.0706033	-0.279302	-0.143477	-0.169519	0.487757	2.07009	0.179394	-0.323926	-0.251768	0.964048	1.77158
0.15	0.254701	-0.204186	0.126931	0.0546575	1.0636	-0.192943	0.011937	0.253597	-0.253095	0.0879589	-0.0747063	0.120418	-0.0175567	-0.189165	-0.377031	-0.168594	1.02332	-0.162858	-0.117314	-0.0226962	-0.46579	0.173782	-0.0608893	-0.270283	-0.144393	-0.162984	0.495324	2.07064	0.169346	-0.313746	-0.250072	0.966682	1.76969
0.16	0.253971	-0.2054	0.129474	0.0678228	1.06519	-0.192127	-0.00137761	0.257174	-0.249105	0.0875612	-0.0627632	0.118462	-0.0176166	-0.149419	-0.379879	-0.149698	1.06769	-0.161871	-0.127096	-0.0226263	-0.466705	0.168554	-0.052486	-0.259538	-0.145322	-0.15548	0.502806	2.06963	0.159485	-0.303993	-0.248587	0.96746	1.76875
0.17	0.253774	-0.204501	0.132261	0.0807696	1.06683	-0.191344	-0.0165824	0.259124	-0.243247	0.0844498	-0.0525626	0.11464	-0.0176766	-0.110619	-0.379283	-0.130593	1.10628	-0.148208	-0.128107	-0.0225564	-0.468575	0.160919	-0.0452864	-0.247225	-0.146187	-0.1473	0.510184	2.0675	0.149765	-0.294672	-0.247456	0.966242	1.76857
0.18	0.253916	-0.201649	0.135051	0.0935326	1.06848	-0.190572	-0.0332647	0.259471	-0.235691	0.0792684	-0.0439489	0.109096	-0.0177365	-0.0730814	-0.375524	-0.112137	1.13869	-0.124451	-0.121761	-0.0224864	-0.471201	0.150933	-0.0390389	-0.233569	-0.146944	-0.138819	0.517518	2.06479	0.140136	-0.285745	-0.246805	0.962924	1.76887
0.19	0.254213	-0.197109	0.137556	0.106144	1.07015	-0.189789	-0.0509185	0.258317	-0.22665	0.0727552	-0.0365522	0.102137	-0.0177965	-0.0370372	-0.369054	-0.0951883	1.16465	-0.0936139	-0.109948	-0.0224164	-0.474329	0.138759	-0.0334022	-0.218842	-0.147591	-0.130452	0.524934	2.06208	0.13055	-0.277149	-0.246741	0.957443	1.7693
0.2	0.254478	-0.191215	0.139495	0.118634	1.07179	-0.188978	-0.0690284	0.255834	-0.21639	0.0656421	-0.0298782	0.0942052	-0.0178564	-0.00265571	-0.360444	-0.0804946	1.18405	-0.0586778	-0.0947696	-0.0223464	-0.4777	0.124651	-0.0280038	-0.203347	-0.148166	-0.122605	0.53262	2.0599	0.120965	-0.268806	-0.247346	0.949779	1.76948
0.21	0.254548	-0.184331	0.140642	0.131031	1.07338	-0.188127	-0.0871334	0.252236	-0.205221	0.0585657	-0.0234002	0.085829	-0.0179164	0.0299466	-0.350312	-0.0686058	1.19691	-0.0222346	-0.0782472	-0.0222764	-0.481073	0.108925	-0.0224972	-0.187393	-0.148748	-0.11563	0.54081	2.05864	0.111354	-0.260646	-0.248666	0.939953	1.76906
0.22	0.254299	-0.176821	0.140859	0.14336	1.07489	-0.187234	-0.10487	0.247766	-0.1935	0.052008	-0.0166364	0.0775677	-0.0179763	0.0607003	-0.339273	-0.0598283	1.20333	0.0137154	-0.0620905	-0.0222063	-0.484256	0.0919355	-0.0166051	-0.171274	-0.149446	-0.109784	0.549761	2.0585	0.101713	-0.252613	-0.250717	0.928012	1.76778
0.23	0.253656	-0.169014	0.140105	0.155642	1.07628	-0.186303	-0.121992	0.242675	-0.181601	0.0462715	-0.00920621	0.0699498	-0.0180363	0.089574	-0.327888	-0.0542255	1.20349	0.0477969	-0.0475396	-0.0221361	-0.487114	0.0740458	-0.0101424	-0.155245	-0.150395	-0.105198	0.559733	2.05941	0.0920651	-0.244674	-0.253482	0.914016	1.76547
